<svg t="1770013605740" class="icon" viewBox="0 0 1024 1024" version="1.1" xmlns="http://www.w3.org/2000/svg" p-id="1981" width="200" height="200"><path d="M512.96 192c129.216 0 171.136 84.48 171.136 250.304 0 68.8-29.056 139.648-74.56 183.04l0.32 14.08c0 2.432-0.192 3.584-0.768 2.816l2.688 3.328c11.648 12.992 33.216 21.568 78.528 32l34.56 7.424c82.368 17.28 120.96 32 149.76 69.76 33.856 45.056 48.448 124.032 53.376 216.512 0 37.76-20.352 52.736-51.648 52.736H147.584a51.648 51.648 0 0 1-51.52-54.592c5.184-89.6 19.584-168.256 51.456-213.824 26.048-37.12 62.08-52.608 136.768-68.544l37.76-7.808c57.92-12.16 81.6-21.376 93.248-37.44-0.64 0.768-0.768-0.32-0.768-2.56l0.448-14.08c-45.184-43.072-74.24-113.024-74.88-180.8C338.432 277.12 380.608 192 512.96 192z m0 64c-84.736 0-110.208 51.392-108.8 187.712 0.448 52.416 23.936 107.392 58.304 138.176 10.56 9.856 16.64 23.68 16.64 38.08 0 29.248-2.048 46.272-12.416 59.968-22.592 31.104-51.2 44.16-115.264 58.496l-52.16 10.88c-59.072 12.608-85.824 23.68-99.328 42.944-21.12 30.272-33.984 95.744-39.104 167.744h702.4l-1.152-15.36c-5.568-66.112-18.304-124.352-38.4-151.232-14.592-19.072-41.088-30.144-98.176-42.88l-52.928-11.392c-63.552-14.656-92.288-27.968-115.52-59.648-9.984-14.208-12.096-33.92-11.52-60.352a52.608 52.608 0 0 1 17.152-37.696c34.048-30.656 57.408-86.08 57.408-139.136C620.16 307.264 594.624 256 512.96 256zM293.12 32.448c82.176 0 132.48 39.488 153.6 111.36l-61.376 18.112c-13.312-45.248-39.04-65.472-92.224-65.472-75.648 0-101.76 39.232-104.192 143.104l-0.128 26.24c0.512 46.72 22.912 96.384 54.72 123.52a49.408 49.408 0 0 1 17.664 38.016c0 27.328-2.048 43.776-12.48 56.96-25.472 33.216-57.984 44.16-141.248 59.904l-9.408 1.792L64 552.896v215.552H0V504.256l22.912-6.784c12.48-3.712 24.768-6.656 41.152-10.048l55.424-10.88c47.744-9.984 68.48-18.304 78.72-31.616-0.96 1.152-1.28 0.192-1.408-1.92l0.192-9.408c-43.52-40-71.552-104.704-72.32-167.104C123.264 111.936 164.8 32.448 293.12 32.448zM732.8 32c125.248 0 166.848 79.04 166.848 231.936 0 63.616-28.16 129.088-72.128 169.216 0.128 7.808 0.512 13.76-1.152 11.712 8.576 10.88 24.256 18.56 56.512 26.688l21.44 4.992 55.68 11.392c16.448 3.52 28.864 6.656 41.408 10.496l22.592 6.912V768h-64V553.536l-15.488-3.456-57.28-11.712c-61.312-13.376-88.832-25.408-110.912-53.696-11.52-14.144-13.12-29.248-12.8-58.24 0-14.208 6.272-27.84 17.408-37.568 32.448-27.52 54.72-77.44 54.72-124.928 0-122.24-24.064-167.936-102.848-167.936-54.72 0-81.152 20.416-94.08 65.088l-61.44-17.792C598.016 71.68 649.216 32 732.8 32z" fill="#35db1f" p-id="1982"></path></svg>